<svg width="50" height="35" viewBox="0 0 50 35" fill="none" xmlns="http://www.w3.org/2000/svg">
<path d="M25.2807 26.2011L19.3762 21.0347V28.6261L25.2807 34.3197L31.1852 28.6261V21.0347L25.2807 26.2011Z" fill="#B388FE"/>
<path d="M31.1852 21.0347L25.2808 26.2011V34.3197L31.1852 28.8367V21.0347Z" fill="#6E39CB"/>
<path d="M9.78143 7.74963V33.0345C9.78143 33.7713 9.23164 34.4169 8.49579 34.3801C-3.41919 33.7848 -2.05072 0 7.93629 0H42.9954C43.2369 0 43.4811 0.0611981 43.6916 0.179528C54.4436 6.22362 49.7746 20.4752 42.1244 21.6954C41.3707 21.8157 40.7521 21.1891 40.7158 20.4268L40.1088 7.67941C40.0713 6.89236 39.4223 6.27351 38.6344 6.27351H35.4869C35.0954 6.27351 34.7199 6.42903 34.4431 6.70585L26.305 14.844C25.7362 15.4128 24.8167 15.4215 24.2373 14.8635L15.7456 6.68635C15.4705 6.42148 15.1035 6.27351 14.7217 6.27351H11.2576C10.4423 6.27351 9.78143 6.93439 9.78143 7.74963Z" fill="url(#paint0_linear_1234_1717)"/>
<defs>
<linearGradient id="paint0_linear_1234_1717" x1="0" y1="17.194" x2="50" y2="17.194" gradientUnits="userSpaceOnUse">
<stop stop-color="#C2A1FD"/>
<stop offset="1" stop-color="#9154FD"/>
</linearGradient>
</defs>
</svg>
